Coordinates
version=1
nRows=14
nColumns=40
inDegrees=yes

Units are S.I. units (second, meters, Newtons, ...)
Angles are in degrees.

endheader
time	pelvis_tilt	pelvis_list	pelvis_rotation	pelvis_tx	pelvis_ty	pelvis_tz	hip_flexion_r	hip_adduction_r	hip_rotation_r	knee_angle_r	knee_angle_r_beta	ankle_angle_r	subtalar_angle_r	mtp_angle_r	hip_flexion_l	hip_adduction_l	hip_rotation_l	knee_angle_l	knee_angle_l_beta	ankle_angle_l	subtalar_angle_l	mtp_angle_l	lumbar_extension	lumbar_bending	lumbar_rotation	arm_flex_r	arm_add_r	arm_rot_r	elbow_flex_r	pro_sup_r	wrist_flex_r	wrist_dev_r	arm_flex_l	arm_add_l	arm_rot_l	elbow_flex_l	pro_sup_l	wrist_flex_l	wrist_dev_l
     58.05114286	     -4.99947241	     -6.21855827	      5.40195473	      1.09888988	      0.93096949	      0.51158656	      8.48478121	      4.73189979	    -16.41429509	     13.73424929	     13.73424929	     11.31414725	     -1.17412920	     -2.35371277	     34.82406619	    -12.97914548	      0.79754020	     49.60723696	     49.60723696	      9.13009650	    -18.81717613	     16.49371374	    -10.49026111	      6.45986101	      1.75882755	     24.52935588	    -14.16376407	     -8.41468167	     53.53176976	     45.58196113	      0.00000000	      0.00000000	      8.21716561	     -6.54422912	     -2.39233742	     27.20470160	     46.56291713	      0.00000000	      0.00000000
     58.06228571	     -5.27266986	     -6.12902348	      5.68689439	      1.09683936	      0.93034255	      0.51118692	      8.12285088	      4.68673542	    -16.51946205	     13.42606615	     13.42606615	     11.62760121	     -1.22928076	     -2.44506754	     35.55780866	    -12.36655584	      0.56626033	     45.94318092	     45.94318092	      9.22225320	    -18.40543516	     16.56330699	    -10.44790579	      6.27721757	      1.85182568	     26.99840398	    -14.70378081	     -8.55135028	     55.37527724	     45.53506871	      0.00000000	      0.00000000	      7.12118840	     -6.36772263	     -2.22012377	     26.07826531	     46.51259426	      0.00000000	      0.00000000
     58.07342857	     -5.34660980	     -6.03797473	      6.05760277	      1.09512998	      0.92996664	      0.51050362	      7.41407691	      4.62729282	    -16.93652674	     12.93679113	     12.93679113	     11.85661165	     -0.74867653	     -2.86467299	     35.72663249	    -11.68997173	      0.41420666	     41.70874950	     41.70874950	      8.01063981	    -17.94073092	     13.22239862	    -10.62914660	      6.20661635	      2.23131240	     27.77798204	    -15.70177135	     -8.08961386	     61.67359621	     45.30609310	      0.00000000	      0.00000000	      7.17593720	     -6.15558641	     -1.01887543	     22.14089581	     46.28589858	      0.00000000	      0.00000000
     58.08457143	     -5.53518020	     -5.90121402	      6.30341801	      1.09344710	      0.92944938	      0.50981078	      6.83209044	      4.54775715	    -17.03668096	     12.45363496	     12.45363496	     12.13911759	     -0.63291188	     -2.93949740	     35.97616601	    -10.93784729	      0.36875351	     37.65982556	     37.65982556	      8.18757218	    -16.63637512	     13.10296840	    -10.64780757	      6.01280544	      1.98414690	     30.30816630	    -15.72004439	     -8.36330996	     63.70088751	     45.26080415	      0.00000000	      0.00000000	      5.77327391	     -6.21447956	     -0.87324825	     21.37565493	     46.22568358	      0.00000000	      0.00000000
     58.09571429	     -5.72870980	     -5.89205961	      6.54249942	      1.09191258	      0.92873840	      0.50900465	      6.16127202	      4.60389106	    -17.36791343	     11.79777369	     11.79777369	     12.37856954	     -0.09314287	     -3.09960773	     36.20050375	    -10.34915682	      0.36798833	     33.68548843	     33.68548843	      8.29231865	    -14.61037909	     12.23154055	    -10.65941201	      6.00347270	      1.68252820	     32.69832954	    -15.75367336	     -8.48868737	     66.53550567	     45.18409068	      0.00000000	      0.00000000	      4.30361350	     -6.22244499	     -0.65182410	     20.81763249	     46.14154141	      0.00000000	      0.00000000
     58.10685714	     -5.90950240	     -5.84800825	      6.74628759	      1.09061347	      0.92805336	      0.50812705	      5.41315362	      4.63248539	    -17.67761431	     11.05346078	     11.05346078	     12.61435195	      0.55529241	     -3.27496749	     36.25384939	     -9.80137005	      0.20576494	     29.71775959	     29.71775959	      8.41625293	    -11.94899227	     11.38043738	    -10.69097421	      5.93048013	      1.62836625	     34.87586327	    -15.96245495	     -8.53904244	     69.38016610	     45.10522118	      0.00000000	      0.00000000	      2.80655267	     -6.23758163	     -0.44501281	     20.57296517	     46.05448748	      0.00000000	      0.00000000
     58.11800000	     -6.14353299	     -5.90387904	      6.92491569	      1.08953124	      0.92706324	      0.50714761	      4.62288347	      4.77527062	    -18.22171191	     10.13221122	     10.13221122	     12.78046668	      1.52209855	     -3.56041921	     36.37215567	     -9.38769400	     -0.04868619	     26.01963870	     26.01963870	      8.33364786	     -8.98729804	      9.94549874	    -10.61894463	      6.03207012	      1.89173045	     36.57780770	    -16.50140925	     -8.51120325	     73.09673306	     45.00251549	      0.00000000	      0.00000000	      1.13857783	     -6.27836068	      0.01479325	     21.08585295	     45.89043626	      0.00000000	      0.00000000
     58.12914286	     -6.31000099	     -5.90232918	      7.00683287	      1.08863363	      0.92616500	      0.50622396	      3.77482660	      4.88325275	    -18.38404629	      9.27577075	      9.27577075	     12.95916614	      2.22706336	     -3.67921652	     36.30990024	     -8.93622061	     -0.17497334	     22.57400102	     22.57400102	      8.54192955	     -6.29143719	      9.82916913	    -10.60933794	      5.94353237	      1.89701612	     38.73056866	    -16.66662478	     -8.59755084	     75.53333572	     44.94360108	      0.00000000	      0.00000000	     -0.35309748	     -6.32132099	      0.33115317	     21.13165604	     45.77821502	      0.00000000	      0.00000000
     58.14028571	     -6.57464827	     -5.91986359	      7.08943145	      1.08782269	      0.92498758	      0.50507492	      3.04876863	      4.98792918	    -18.54159913	      8.46066055	      8.46066055	     13.21652091	      2.81514209	     -3.76902244	     36.35236799	     -8.48346776	     -0.31235921	     19.52853982	     19.52853982	      8.62601057	     -3.97700751	     10.14195581	    -10.40037155	      5.97535487	      2.01889114	     40.82558256	    -16.85657490	     -8.66805473	     77.48018787	     44.89589329	      0.00000000	      0.00000000	     -1.74713958	     -6.29458142	      0.47292228	     21.10412810	     45.71012743	      0.00000000	      0.00000000
     58.15142857	     -6.71006799	     -6.01377010	      7.18086717	      1.08741006	      0.92373286	      0.50390395	      2.01851000	      5.21621158	    -19.06920437	      7.36741733	      7.36741733	     13.40507907	      4.14841140	     -3.90027530	     36.48920653	     -8.22440926	     -0.74559028	     17.41053743	     17.41053743	      8.91699665	     -1.65310780	     10.48018331	    -10.38779402	      6.09790775	      2.32352848	     42.30761936	    -17.36803748	     -8.68843661	     81.37204071	     44.96358202	      0.00000000	      0.00000000	     -4.25492906	     -7.32084628	      7.18991035	     24.02532783	     44.40826621	      0.00000000	      0.00000000
     58.16257143	     -7.10393168	     -6.16295385	      7.16244861	      1.08683140	      0.92187498	      0.50266369	      1.60692882	      5.38912162	    -19.00877667	      6.91238231	      6.91238231	     13.71936092	      4.42450732	     -3.96299368	     37.01324282	     -7.94585276	     -0.81951271	     15.96067245	     15.96067245	      8.86636357	     -0.80975300	     10.71331728	     -9.94955077	      6.21275990	      2.64728277	     44.50718414	    -17.88700172	     -8.94921975	     82.48303646	     44.94736348	      0.00000000	      0.00000000	     -5.57246517	     -7.24286825	      7.19110088	     23.69671707	     44.38864491	      0.00000000	      0.00000000
     58.17371429	     -7.12143968	     -6.16988251	      7.23407047	      1.08683974	      0.92074075	      0.50122508	      0.33829771	      5.55999212	    -19.49657285	      5.67066076	      5.67066076	     13.93389399	      5.83762114	     -3.76391189	     36.82840064	     -7.63817322	     -1.32434916	     14.59663821	     14.59663821	      8.78801253	      0.17280464	     11.00984988	    -10.05340440	      6.25811461	      2.40424146	     46.10763086	    -17.49636827	     -8.48955665	     85.88131004	     44.84367659	      0.00000000	      0.00000000	     -7.28478268	     -7.28575356	      7.11060312	     24.61637762	     44.39213293	      0.00000000	      0.00000000
     58.18485714	     -7.33269980	     -6.18580742	      7.19020783	      1.08681806	      0.91905205	      0.49971546	     -0.36698812	      5.60150740	    -19.59407874	      5.13983262	      5.13983262	     14.35930719	      6.48490064	     -3.56270956	     36.95871925	     -7.33433372	     -1.62409249	     13.96916339	     13.96916339	      8.50665391	     -0.05537946	     11.05353219	     -9.83777572	      6.26495695	      2.49225585	     47.76800071	    -17.54340029	     -8.37232770	     88.07178062	     44.78997614	      0.00000000	      0.00000000	     -8.82202819	     -7.30050985	      7.12347954	     25.10249596	     44.38190499	      0.00000000	      0.00000000
     58.19600000	     -7.61538226	     -6.23601673	      7.05915050	      1.08682075	      0.91711831	      0.49827241	     -0.83468368	      5.61582192	    -19.42695957	      4.92238676	      4.92238676	     14.80580920	      6.72497478	     -3.59120677	     37.26846911	     -7.17492468	     -2.10181710	     14.01153082	     14.01153082	      8.12416557	     -0.57077094	     11.12122033	     -9.48778030	      6.24965550	      2.82873094	     49.49535201	    -17.79124104	     -8.50910720	     89.06429886	     44.77238525	      0.00000000	      0.00000000	     -9.95274267	     -7.17839790	      7.14373784	     24.90700476	     44.36250859	      0.00000000	      0.00000000
